<?xml version="1.0" encoding="UTF-8" standalone="no"?>
<!-- Created with Inkscape (http://www.inkscape.org/) -->

<svg
   xmlns:dc="http://purl.org/dc/elements/1.1/"
   xmlns:cc="http://creativecommons.org/ns#"
   xmlns:rdf="http://www.w3.org/1999/02/22-rdf-syntax-ns#"
   xmlns:svg="http://www.w3.org/2000/svg"
   xmlns="http://www.w3.org/2000/svg"
   xmlns:sodipodi="http://sodipodi.sourceforge.net/DTD/sodipodi-0.dtd"
   xmlns:inkscape="http://www.inkscape.org/namespaces/inkscape"
   id="svg3039"
   version="1.1"
   inkscape:version="0.48.5 r10040"
   width="540"
   height="174"
   sodipodi:docname="scopus-new.jpg"
   inkscape:export-filename="/Users/gustavo/site-gesar/content/media/images/logos/scopus-new.png"
   inkscape:export-xdpi="180.00999"
   inkscape:export-ydpi="180.00999">
  <metadata
     id="metadata3045">
    <rdf:RDF>
      <cc:Work
         rdf:about="">
        <dc:format>image/svg+xml</dc:format>
        <dc:type
           rdf:resource="http://purl.org/dc/dcmitype/StillImage" />
        <dc:title></dc:title>
      </cc:Work>
    </rdf:RDF>
  </metadata>
  <defs
     id="defs3043">
    <filter
       inkscape:label="Clean edges"
       inkscape:menu="ABCs"
       inkscape:menu-tooltip="Removes or decreases glows and jaggeries around objects edges after applying some filters"
       height="1"
       width="1"
       y="0"
       x="0"
       color-interpolation-filters="sRGB"
       id="filter3071">
      <feGaussianBlur
         result="result6"
         stdDeviation="0.4"
         id="feGaussianBlur3073" />
      <feComposite
         in2="result6"
         operator="in"
         in="SourceGraphic"
         result="result7"
         id="feComposite3075" />
      <feComposite
         operator="in"
         in2="result7"
         result="result8"
         in="result7"
         id="feComposite3077" />
    </filter>
    <filter
       inkscape:label="Clean edges"
       inkscape:menu="ABCs"
       inkscape:menu-tooltip="Removes or decreases glows and jaggeries around objects edges after applying some filters"
       height="1"
       width="1"
       y="0"
       x="0"
       color-interpolation-filters="sRGB"
       id="filter3104">
      <feGaussianBlur
         result="result6"
         stdDeviation="0.4"
         id="feGaussianBlur3106" />
      <feComposite
         in2="result6"
         operator="in"
         in="SourceGraphic"
         result="result7"
         id="feComposite3108" />
      <feComposite
         operator="in"
         in2="result7"
         result="result8"
         in="result7"
         id="feComposite3110" />
    </filter>
    <filter
       inkscape:label="Clean edges"
       inkscape:menu="ABCs"
       inkscape:menu-tooltip="Removes or decreases glows and jaggeries around objects edges after applying some filters"
       height="1"
       width="1"
       y="0"
       x="0"
       color-interpolation-filters="sRGB"
       id="filter3906">
      <feGaussianBlur
         result="result6"
         stdDeviation="0.4"
         id="feGaussianBlur3908" />
      <feComposite
         in2="result6"
         operator="in"
         in="SourceGraphic"
         result="result7"
         id="feComposite3910" />
      <feComposite
         operator="in"
         in2="result7"
         result="result8"
         in="result7"
         id="feComposite3912" />
    </filter>
  </defs>
  <sodipodi:namedview
     pagecolor="#ffffff"
     bordercolor="#666666"
     borderopacity="1"
     objecttolerance="10"
     gridtolerance="10"
     guidetolerance="10"
     inkscape:pageopacity="0"
     inkscape:pageshadow="2"
     inkscape:window-width="1280"
     inkscape:window-height="717"
     id="namedview3041"
     showgrid="false"
     inkscape:zoom="0.75490196"
     inkscape:cx="244.40419"
     inkscape:cy="80.376624"
     inkscape:window-x="0"
     inkscape:window-y="0"
     inkscape:window-maximized="1"
     inkscape:current-layer="svg3039" />
  <g
     id="g3049"
     transform="translate(-6.6233762,1.3246712)">
    <path
       style="fill:#000000;fill-opacity:1;filter:url(#filter3906);opacity:1;stroke:#000000;stroke-opacity:1;stroke-width:0;stroke-miterlimit:4;stroke-dasharray:none"
       d="m 284.2793,165.79084 c -1.18034,-1.25996 -2.62605,-3.55763 -3.21269,-5.10594 C 280.35908,158.81752 280,139.70151 280,103.90278 c 0,-59.555806 -0.0474,-59.074421 6.18982,-62.877145 1.82291,-1.111395 5.06463,-2.019838 7.21502,-2.021897 3.25719,-0.0031 4.53594,0.659693 7.70994,3.996262 4.33073,4.552538 4.92039,4.723601 7.28311,2.112836 0.93932,-1.037941 4.4463,-3.116105 7.79328,-4.618143 5.4214,-2.432978 6.97057,-2.682778 14.19713,-2.289256 13.01799,0.708895 21.47346,5.471238 28.6513,16.137177 10.75239,15.977534 12.09637,39.599971 3.24724,57.074716 -3.94082,7.7821 -11.29075,14.82747 -19.33799,18.53668 -6.54288,3.01581 -7.64682,3.21758 -15.83334,2.89391 -7.57219,-0.29937 -9.67548,-0.79964 -15.07375,-3.58528 -3.45051,-1.78054 -6.67148,-2.99148 -7.15771,-2.69098 -0.48623,0.30051 -0.88405,8.10327 -0.88405,17.33947 0,15.83354 -0.13057,16.98726 -2.28511,20.19099 -2.15988,3.21168 -2.64143,3.41382 -8.78732,3.68872 -5.69544,0.25476 -6.76848,0.007 -8.64827,-2 z m 49.8722,-58.28363 c 2.37567,-1.56484 4.64217,-4.43007 6.48684,-8.200448 6.34481,-12.968319 1.95776,-31.284392 -8.83868,-36.901776 -3.57529,-1.860223 -12.1555,-1.789453 -15.86904,0.13089 -6.98309,3.611096 -11.74567,15.278138 -10.63389,26.050187 0.64383,6.238162 4.02921,14.432057 7.18928,17.400787 5.70465,5.35925 14.86189,6.00185 21.66549,1.52036 z M 28.317169,131.49701 C 13.705203,128.32073 7,122.78041 7,113.88325 c 0,-3.77513 0.556803,-5.2678 2.9012098,-7.77749 4.1525242,-4.4453 7.9687792,-4.43624 22.0987902,0.0524 11.387012,3.6173 21.019684,3.71084 25.656245,0.24915 C 62.387934,102.87461 64.5,99.1975 64.5,94.492332 64.5,86.648979 60.599267,84.095572 38.508042,77.478078 20.873118,72.195484 12.808825,66.450451 9.0948745,56.524029 6.453984,49.465616 6.4273681,42.017777 9.0138647,33.855335 14.222311,17.41857 27.455067,8.1611798 47.066723,7.2342647 c 5.37908,-0.2542341 12.041103,0.061523 15.219475,0.7213503 7.864937,1.6327544 16.860301,6.329512 18.97331,9.906552 3.380398,5.722557 1.458002,13.101345 -4.299341,16.502292 -3.709599,2.191314 -6.064106,2.05586 -15.248262,-0.877225 C 57.428452,32.119255 51.901499,31 49.429786,31 37.193393,31 30.441538,40.632553 37.507958,48.008306 c 2.177673,2.273001 5.890221,3.926916 15.895318,7.081257 16.402006,5.171116 25.037651,9.495381 30.245644,15.145387 13.961045,15.145945 9.964958,43.46226 -7.736554,54.82128 -9.482575,6.08496 -16.541882,7.9537 -29.707855,7.86427 -6.437481,-0.0437 -14.486785,-0.6843 -17.887342,-1.42349 z m 101.496101,-0.37949 c -9.7173,-3.89004 -15.9173,-8.59596 -21.0222,-15.95623 -8.40307,-12.11559 -11.032321,-29.156167 -6.73309,-43.638172 4.16754,-14.038411 12.50157,-24.07181 24.83716,-29.901645 6.23442,-2.9464 7.24986,-3.118496 18.10486,-3.068395 13.03643,0.06017 20.34991,2.168946 26.07735,7.519178 2.95245,2.758001 3.13894,3.324936 2.67659,8.136761 -0.40361,4.200471 -1.08771,5.700018 -3.64124,7.981592 -3.83519,3.426742 -4.7778,3.449324 -13.6127,0.326125 -11.78565,-4.166311 -18.89111,-3.07071 -25.32033,3.904178 -9.28181,10.069571 -9.45618,27.725636 -0.37323,37.791548 6.68641,7.41002 12.89417,8.429 26.04388,4.27501 8.9375,-2.82336 11.43863,-2.47817 15.01836,2.07271 5.31849,6.76137 0.89458,15.07573 -10.36868,19.48705 -8.3219,3.25932 -24.82603,3.81678 -31.68673,1.07029 z m 81.01726,0.30605 c -12.33374,-3.79597 -23.14742,-15.04558 -27.94012,-29.06647 -3.27134,-9.57021 -3.28389,-23.108254 -0.0302,-32.623326 4.95081,-14.478304 15.48152,-25.354969 28.85846,-29.80653 8.17488,-2.720426 20.08522,-2.346444 28.28137,0.888029 11.97173,4.724441 21.40692,15.142634 26.14748,28.871654 3.42215,9.910798 3.17782,25.081658 -0.55261,34.313073 -5.44304,13.46947 -13.20717,21.54456 -25.52889,26.55132 -4.96346,2.01683 -7.66107,2.4364 -15.29611,2.37903 -5.09843,-0.0383 -11.37113,-0.71636 -13.93934,-1.50678 z m 18.4468,-21.4837 c 9.61219,-2.66932 15.23286,-12.80283 14.48974,-26.123551 -0.80763,-14.477174 -8.07487,-23.130534 -19.34041,-23.029304 -4.63572,0.04166 -6.51121,0.59632 -9.77673,2.891415 -14.49244,10.185671 -11.96452,40.27679 3.85007,45.82937 4.89366,1.71818 5.98808,1.76206 10.77733,0.43207 z m 174.11773,20.97422 C 394.12325,127.72684 388.14468,122.68785 384,114.56712 l -3.5,-6.85761 -0.32051,-28.604753 c -0.21489,-19.178277 0.0502,-29.856301 0.80447,-32.40258 2.81768,-9.512242 17.07986,-10.409481 21.3812,-1.345099 1.3763,2.900349 1.63572,7.374854 1.64042,28.294051 0.003,13.666879 0.44866,26.443831 0.99022,28.393231 0.54156,1.94939 2.58894,5.09939 4.54974,7 3.41556,3.31069 3.87666,3.45564 10.99248,3.45564 7.40757,0 7.43876,-0.0114 11.69468,-4.26283 L 436.5,103.97434 437,75.737169 c 0.36769,-20.765224 0.85332,-28.921124 1.83521,-30.821898 4.03203,-7.805266 16.63381,-7.710332 20.70162,0.155953 1.34709,2.604974 1.52744,7.336002 1.26693,33.233074 L 460.5,108.5 l -2.80555,5.71391 c -3.44267,7.01152 -10.01467,12.97962 -17.54736,15.93494 -8.42063,3.3037 -28.17125,3.71494 -36.75203,0.76524 z M 492,131.56903 c -10.40472,-2.89515 -19.53377,-9.56688 -20.55752,-15.02394 -1.13648,-6.05796 4.19042,-12.55785 10.27234,-12.53431 1.53185,0.006 6.61018,1.80107 11.28518,3.98922 13.62784,6.37855 24,5.30497 24,-2.48412 0,-4.34923 -2.67632,-6.474401 -13.32513,-10.581017 -17.33712,-6.685902 -23.41576,-10.76715 -27.12599,-18.212612 -6.56385,-13.171938 0.6412,-30.001093 15.40169,-35.974392 4.56199,-1.846153 7.41775,-2.238598 16.04943,-2.205549 12.7964,0.04899 20.39097,2.549336 26.25,8.642226 3.16154,3.287735 3.75,4.582621 3.75,8.251816 0,3.42244 -0.61975,5.015584 -2.90121,7.457893 -3.71886,3.981054 -6.95049,4.00599 -15.25947,0.117744 -11.12992,-5.208316 -19.76435,-4.969586 -21.88382,0.605057 -1.82623,4.803342 2.24509,8.847468 12.55492,12.471085 10.20521,3.58684 18.88096,8.303918 23.23958,12.635553 2.3375,2.323027 4.25,4.910527 4.25,5.75 C 538,95.313158 538.45,96 539,96 c 1.16144,0 1.40437,17.65353 0.25,18.16682 -0.4125,0.18342 -1.70412,2.13342 -2.87026,4.33333 -2.65999,5.01806 -8.67217,9.71727 -15.88494,12.41591 -6.46992,2.42071 -20.94936,2.75251 -28.4948,0.65297 z"
       id="path3061"
       inkscape:connector-curvature="0" />
    <path
       style="fill:#000000;fill-opacity:1"
       d="m 285.24093,164.75 c -8.04165,-15.26937 -2.39544,-34.51789 -4.23145,-51.40744 0.84137,-22.539873 -2.06432,-45.611474 2.31365,-67.777971 10.7346,-16.180025 20.91667,12.386212 31.76876,-3.001768 19.59496,-10.886878 43.55422,4.492586 49.12224,24.538174 3.15913,10.655957 2.53837,22.519213 1.79649,33.395805 -6.59583,17.45652 -21.9854,34.3391 -42.37698,31.38959 -13.83739,-6.82271 -25.4162,-8.52957 -20.63364,11.5055 1.89655,12.0319 -1.23604,31.22867 -17.75907,21.35811 z m 48.55054,-55.42862 c 19.39219,-12.695929 12.27584,-54.827851 -14.41456,-49.236291 -22.37811,7.436114 -20.024,49.281541 4.20508,51.653571 3.51242,-0.0279 7.17155,-0.47897 10.20948,-2.41728 z M 29.058796,130.49221 C 9.7190778,133.38533 -1.5005024,99.48519 23.355971,104.91033 39.08656,115.51261 77.395623,109.63018 61.540794,85.147224 44.104321,74.77749 15.704715,76.220945 8.991783,52.961302 3.2439081,28.87493 25.878569,6.2149823 49.700779,8.0118689 65.970975,2.5497555 97.512673,26.297582 70.978127,34.623615 57.733295,26.071616 21.502903,29.903688 38.472926,50.713917 c 18.16886,8.536789 45.635234,10.399403 51.579763,33.589352 4.017452,18.372141 -5.473609,38.256521 -23.77277,44.409151 -9.388343,5.52989 -21.161272,2.00815 -31.51617,2.61363 l -2.122386,-0.23004 -3.582567,-0.6038 0,0 z M 133,131.11666 c -31.67839,-9.14164 -42.346164,-53.199254 -20.27792,-76.975303 13.5879,-17.401142 42.13937,-20.186634 58.70831,-5.93728 5.53123,31.949645 -36.761,-4.510198 -44.69444,21.872636 -9.80934,15.947562 -0.26539,45.555287 21.74376,41.498977 11.02074,-7.34317 34.21903,-0.44764 19.58751,13.39027 -10.01762,7.68761 -23.16759,7.37917 -35.06722,6.1507 z m 79.36597,-0.49912 c -32.60069,-9.59522 -41.26652,-56.811027 -16.74925,-79.184643 17.16171,-18.801708 50.8154,-15.231811 63.49954,6.979722 17.92996,24.397682 6.30691,65.060081 -24.0872,72.581261 -7.45387,1.00238 -15.29093,1.28754 -22.66309,-0.37634 z m 20.32233,-20.56299 c 16.5522,-9.254 16.37211,-37.994622 1.00432,-48.419238 -18.54554,-9.768208 -34.32718,13.443345 -29.22843,30.409191 1.16816,13.314447 15.12483,24.529657 28.22411,18.010047 z m 174.69438,21.05378 c -14.77453,-3.65469 -28.24714,-17.75935 -25.99134,-33.601812 0.3469,-17.115907 -1.8317,-34.541393 1.05843,-51.409387 19.9356,-19.313279 23.40815,17.007859 20.55532,30.705434 -4.37779,18.089124 5.53596,48.031115 28.29213,34.086525 12.4157,-14.871564 3.91634,-37.538491 7.33751,-55.688902 -3.83685,-22.746443 29.18936,-15.891015 21.23558,4.196543 -0.40025,16.294281 0.47942,32.982816 -0.85979,49.100019 -5.86291,16.9811 -24.18958,25.61809 -41.41587,23.19481 -3.4053,-0.0746 -6.84217,-0.0101 -10.21197,-0.58323 z m 86.37147,-0.13922 c -15.92117,1.11816 -32.17411,-26.60524 -8.42237,-24.77885 9.43989,10.79698 45.52541,8.42996 27.45636,-8.568244 C 497.1658,90.99909 470.93068,83.718268 475.76305,61.397039 481.44222,35.542227 521.04723,31.8307 535.8164,51.222104 c 6.86924,31.16215 -45.90472,-11.217035 -37.36099,19.511566 12.74939,9.10363 30.20883,11.181763 40.0095,24.654302 5.26329,10.776098 -0.89776,25.303568 -11.91501,31.024098 -9.41082,7.01225 -21.86394,5.50576 -32.79575,4.55704 z"
       id="path3057"
       inkscape:connector-curvature="0" />
    <path
       style="fill:#000000;fill-opacity:1;stroke:#000000;stroke-opacity:1;stroke-width:2.125;stroke-miterlimit:4;stroke-dasharray:none"
       d="m 286.24093,163.75 c -1.15924,-1.2375 -2.58768,-3.51679 -3.17432,-5.0651 C 282.36098,156.82252 282,138.30018 282,103.95514 c 0,-57.276098 0.11204,-58.410358 6.07429,-61.493558 5.42486,-2.805303 8.88707,-1.413206 14.71514,5.916715 1.84792,2.324126 3.68705,2.017111 7.42577,-1.239626 6.1446,-5.35245 9.62673,-6.610933 18.2848,-6.608347 9.56607,0.0029 13.94573,1.383058 20.28213,6.391694 13.17973,10.41798 20.30651,32.961835 16.13846,51.050176 -2.7972,12.139186 -11.94727,24.387406 -22.24798,29.780986 -4.49621,2.35427 -6.34951,2.71095 -14.17261,2.72763 -9.17268,0.0196 -12.40681,-0.9506 -20.65458,-6.19587 -2.22415,-1.41447 -2.91328,-1.47351 -4.25,-0.36413 C 302.24736,125.0396 302,127.92728 302,142.54572 c 0,17.15368 -0.022,17.327 -2.58889,20.37755 -2.14076,2.54414 -3.32229,3.07673 -6.82569,3.07673 -3.10254,0 -4.80106,-0.60236 -6.34449,-2.25 z m 47.16401,-53.01645 c 10.5077,-6.01021 15.29695,-21.272282 11.10492,-35.388403 C 338.37919,54.700958 315.46759,51.83767 305.73971,70.5 c -2.90384,5.570835 -3.54695,18.211371 -1.31683,25.882707 1.84241,6.337673 7.20879,13.104853 12.07712,15.229653 4.77253,2.08298 12.42204,1.68532 16.90494,-0.87881 z M 29.616736,129.36096 C 16.031885,126.44793 9,121.24631 9,114.11037 9,111.32223 9.7116926,109.69234 11.804719,107.68709 15.50053,104.14628 19.286655,104.20965 30.5,108 51.050558,114.94653 65.667581,110.01962 66.719957,95.791471 67.470157,85.648744 63.456672,82.506581 41.5,76.046733 21.942892,70.292858 13.540853,64.108164 10.344591,53.113408 6.3798457,39.475163 13.204608,23.865721 27.00989,14.996914 44.595869,3.6993072 81,9.9282135 81,24.234859 81,27.438211 75.441304,34 72.727645,34 71.917849,34 67.808946,32.875 63.596748,31.5 49.645525,26.945861 38.211452,28.586694 33.985386,35.749341 c -2.594581,4.397489 -2.510551,8.1756 0.273728,12.307191 2.545935,3.777914 7.50213,6.092354 23.240886,10.853012 17.799954,5.38413 27.658302,13.149692 31.006487,24.424256 5.764672,19.41175 -5.703055,39.32239 -26.314874,45.68874 -7.765807,2.39861 -22.26475,2.54924 -32.574877,0.33842 z m 101.606794,-0.33184 c -7.3464,-2.64358 -11.11347,-5.15908 -16.86182,-11.25965 -13.11474,-13.91831 -15.987102,-35.332809 -7.18972,-53.601951 2.67652,-5.558201 11.94502,-15.577015 17.22817,-18.62283 2.25491,-1.299992 6.92872,-3.143256 10.38623,-4.096142 10.90451,-3.005266 26.89133,-0.304447 33.7277,5.697971 3.8667,3.395006 4.38049,6.222884 1.97556,10.873498 -2.5573,4.945281 -4.51723,5.332849 -12.63162,2.497851 -11.96139,-4.17906 -22.69711,-2.823622 -28.51543,3.600214 C 124.02034,69.994243 122.5,74.856115 122.5,86 c 0,11.08753 1.05198,14.26052 6.91177,20.84732 5.59372,6.28773 15.70598,7.81404 27.42732,4.13978 8.39179,-2.63055 10.5954,-2.52149 13.08833,0.64776 4.89212,6.21932 0.46254,12.60381 -11.69043,16.84981 -8.9695,3.13376 -19.24251,3.34081 -27.01346,0.54445 z m 83.15915,1.07708 c -10.3609,-2.65671 -21.87525,-12.22566 -26.75431,-22.23407 -1.50896,-3.09533 -3.46363,-9.282825 -4.34371,-13.749998 -1.46686,-7.445599 -1.46686,-8.798665 0,-16.244264 1.96049,-9.951173 5.4024,-17.201253 11.25811,-23.714214 C 216.8436,29.359759 253.46756,38.682158 264.61459,72 c 2.56923,7.679286 2.32845,21.436899 -0.51489,29.41927 -4.29418,12.05546 -12.1925,21.08014 -22.97571,26.25221 -4.60214,2.20737 -7.25925,2.74624 -14.62399,2.96578 -4.95,0.14755 -10.40279,-0.0914 -12.11732,-0.53106 z m 19.32878,-19.20857 c 8.30294,-4.01938 12.43293,-12.703131 12.40823,-26.08963 -0.0174,-9.428943 -2.63824,-16.236871 -8.17707,-21.240876 -11.37906,-10.280299 -28.01766,-5.226126 -33.51587,10.180845 -1.58021,4.428051 -1.82992,17.260651 -0.43367,22.286551 1.77376,6.38476 6.68051,12.91494 11.26946,14.99803 5.64594,2.56288 12.98691,2.5092 18.44892,-0.13492 z m 174.03446,19.07594 C 397.30208,127.34733 387.88746,119.4687 384.40578,110.44135 382.68703,105.98494 382.5,102.62144 382.5,76.168497 l 0,-29.331503 3.26578,-2.918497 c 3.6635,-3.27393 7.59075,-3.757926 11.01743,-1.357793 4.88077,3.418627 5.21679,5.53917 5.21679,32.921755 0,20.827745 0.28762,26.270161 1.54773,29.286011 2.2753,5.44555 5.21642,8.08379 10.89356,9.77171 8.71097,2.58994 16.84005,0.0511 21.96676,-6.86044 1.97508,-2.66271 2.11988,-4.39453 2.59195,-31.000003 0.52366,-29.513249 0.75004,-30.990393 5.23024,-34.128452 3.69808,-2.590231 7.5813,-1.939749 11.43684,1.915794 l 3.46708,3.467079 -0.31708,29.782921 c -0.30843,28.970571 -0.38146,29.912491 -2.67746,34.533461 -3.04803,6.13452 -11.75853,14.06623 -17.85412,16.25783 -5.5818,2.00688 -24.73183,2.92564 -30.53958,1.4652 z m 85.35642,-0.55667 c -11.2827,-3.03403 -21.2099,-11.35192 -19.60042,-16.42296 0.79276,-2.49775 6.17852,-6.99394 8.3777,-6.99394 0.9494,0 5.52737,1.84125 10.17328,4.09166 7.18537,3.48049 9.42659,4.0986 15.00467,4.13817 7.97242,0.0565 10.42383,-1.12844 11.95931,-5.78096 2.37751,-7.20395 -0.851,-10.471534 -15.94996,-16.142974 -15.43705,-5.798428 -23.4772,-12.05652 -25.90636,-20.164339 -1.52139,-5.077943 -1.46787,-6.743746 0.42107,-13.104494 C 480.88241,47.922153 493.54082,40 508,40 c 8.69372,0 18.34105,3.351409 23.59916,8.198168 5.37155,4.951325 5.75835,8.250966 1.52287,12.991288 -3.24343,3.63003 -3.45012,3.60909 -15.62203,-1.582736 -9.68594,-4.131457 -18.97892,-3.240551 -21.38973,2.050605 -3.10683,6.818763 1.09929,12.292626 12.47878,16.239942 12.09288,4.194773 19.19541,8.163939 24.18283,13.514281 2.60046,2.789699 5.17812,5.075841 5.72812,5.080316 1.12261,0.0091 1.91849,11.704586 1.03582,15.221426 -0.31404,1.25124 -0.96991,2.16513 -1.45749,2.03085 -0.48759,-0.13428 -2.24891,1.62199 -3.91405,3.90282 -4.04551,5.54133 -8.79217,9.02215 -15.53474,11.39198 -6.67851,2.3473 -17.60228,2.50904 -25.5272,0.37796 z"
       id="path3053"
       inkscape:connector-curvature="0" />
  </g>
</svg>
